{"title":"Cars 3 2017 Movies HD TS XviD Clean Audio V2 New +Sample ~ ☻rDX☻","magnet":"magnet:?xt=urn:btih:bf287c98e56df3274b2cae8817d138d9d8033cba&dn=Cars+3+2017+Movies+HD+TS+XviD+Clean+Audio+V2+New+%2BSample+%7E+%E2%98%BBrDX%E2%98%BB&tr=udp%3A%2F%2Ftracker.leechers-paradise.org%3A6969&tr=udp%3A%2F%2Fzer0day.ch%3A1337&tr=udp%3A%2F%2Fopen.demonii.com%3A1337&tr=udp%3A%2F%2Ftracker.coppersurfer.tk%3A6969&tr=udp%3A%2F%2Fexodus.desync.com%3A6969","uploader":"basicssom","categoryP":"video","categoryS":"movies","size":"738991816","seeders":"0","leechers":"2","description":"----------------------------------------------------------------\r\nCars 3 2017 Movies HD TS XviD Clean Audio V2 AAC New Source with Sample &#x263B;rDX&#x263B;\r\n\r\nSCREEN SHOTS &amp; POSTER:\r\n   <a href=\"\nhttp://postimage.co.nr/2017/6/4g/index.html\" rel=\"nofollow\" target=\"_NEW\">\nhttp://postimage.co.nr/2017/6/4g/index.html</a>  <a href=\"\nhttp://postimage.co.nr/2017/6/4g/1.html\" rel=\"nofollow\" target=\"_NEW\">\nhttp://postimage.co.nr/2017/6/4g/1.html</a>   <a href=\"\nhttp://postimage.co.nr/2017/6/4g/2.html\" rel=\"nofollow\" target=\"_NEW\">\nhttp://postimage.co.nr/2017/6/4g/2.html</a>   <a href=\"\nhttp://postimage.co.nr/2017/6/4g/3.html\" rel=\"nofollow\" target=\"_NEW\">\nhttp://postimage.co.nr/2017/6/4g/3.html</a>   <a href=\"\nhttp://postimage.co.nr/2017/6/4g/4.html\" rel=\"nofollow\" target=\"_NEW\">\nhttp://postimage.co.nr/2017/6/4g/4.html</a>   <a href=\"\nhttp://postimage.co.nr/2017/6/4g/5.html\" rel=\"nofollow\" target=\"_NEW\">\nhttp://postimage.co.nr/2017/6/4g/5.html</a>   <a href=\"\nhttp://postimage.co.nr/2017/6/4g/6.html\" rel=\"nofollow\" target=\"_NEW\">\nhttp://postimage.co.nr/2017/6/4g/6.html</a>   <a href=\"\nhttp://postimage.co.nr/2017/6/4g/7.html\" rel=\"nofollow\" target=\"_NEW\">\nhttp://postimage.co.nr/2017/6/4g/7.html</a>   <a href=\"\nhttp://postimage.co.nr/2017/6/4g/8.html\" rel=\"nofollow\" target=\"_NEW\">\nhttp://postimage.co.nr/2017/6/4g/8.html</a>   <a href=\"\nhttp://postimage.co.nr/2017/6/4g/9.html\" rel=\"nofollow\" target=\"_NEW\">\nhttp://postimage.co.nr/2017/6/4g/9.html</a>   <a href=\"\nhttp://postimage.co.nr/2017/6/4g/10.html\" rel=\"nofollow\" target=\"_NEW\">\nhttp://postimage.co.nr/2017/6/4g/10.html</a>\r\n\r\nFile size                                : 695 MiB\r\nDuration                                 : 1 h 36 min\r\nOverall bit rate mode                    : Constant\r\nOverall bit rate                         : 1 002 kb/s\r\nMovie name                               : Cars 3 2017 Movies HD TS XviD Clean Audio V2 AAC New Source &#x263B;rDX&#x263B;\r\n\r\nVideo\r\nID                                       : 2\r\nFormat                                   : AVC\r\nFormat/Info                              : Advanced Video Codec\r\nFormat profile                           : <a class=\"__cf_email__\" href=\"/cdn-cgi/l/email-protection\" data-cfemail=\"d29fb3bbbc929ee1fce3\">[email&#xA0;protected]</a><script data-cfhash=\"f9e31\" type=\"text/javascript\">/* <![CDATA[ */!function(t,e,r,n,c,a,p){try{t=document.currentScript||function(){for(t=document.getElementsByTagName('script'),e=t.length;e--;)if(t[e].getAttribute('data-cfhash'))return t[e]}();if(t&&(c=t.previousSibling)){p=t.parentNode;if(a=c.getAttribute('data-cfemail')){for(e='',r='0x'+a.substr(0,2)|0,n=2;a.length-n;n+=2)e+='%'+('0'+('0x'+a.substr(n,2)^r).toString(16)).slice(-2);p.replaceChild(document.createTextNode(decodeURIComponent(e)),c)}p.removeChild(t)}}catch(u){}}()/* ]]> */</script>\r\nFormat settings, CABAC                   : Yes\r\nFormat settings, ReFrames                : 2 frames\r\nFormat settings, GOP                     : M=1, N=12\r\nCodec ID                                 : V_MPEG4/ISO/AVC\r\nDuration                                 : 1 h 36 min\r\nBit rate mode                            : Constant\r\nBit rate                                 : 813 kb/s\r\nWidth                                    : 720 pixels\r\nHeight                                   : 296 pixels\r\nDisplay aspect ratio                     : 2.40:1\r\nFrame rate mode                          : Constant\r\nFrame rate                               : 60.000 FPS\r\nColor space                              : YUV\r\nChroma subsampling                       : 4:2:0\r\nBit depth                                : 8 bits\r\nScan type                                : Progressive\r\nBits/(Pixel*Frame)                       : 0.064\r\nStream size                              : 548 MiB (79%)\r\nTitle                                    : &#x263B;rDX&#x263B;\r\nDefault                                  : Yes\r\nForced                                   : No\r\n\r\nAudio\r\nID                                       : 1\r\nFormat                                   : MPEG Audio\r\nFormat version                           : Version 1\r\nFormat profile                           : Layer 3\r\nCodec ID                                 : A_MPEG/L3\r\nCodec ID/Hint                            : MP3\r\nDuration                                 : 1 h 36 min\r\nBit rate mode                            : Constant\r\nBit rate                                 : 192 kb/s\r\nChannel(s)                               : 2 channels\r\nSampling rate                            : 44.1 kHz\r\nCompression mode                         : Lossy\r\nDelay relative to video                  : 18 ms\r\nStream size                              : 133 MiB (19%)\r\nTitle                                    : &#x263B;rDX&#x263B;\r\nDefault                                  : Yes\r\nForced                                   : No","last_updated":"2017-06-25T12:00:52.838Z","parsed":{"xt":"urn:btih:bf287c98e56df3274b2cae8817d138d9d8033cba","dn":"Cars 3 2017 Movies HD TS XviD Clean Audio V2 New  Sample ~ ☻rDX☻","tr":["udp://exodus.desync.com:6969","udp://open.demonii.com:1337","udp://tracker.coppersurfer.tk:6969","udp://tracker.leechers-paradise.org:6969","udp://zer0day.ch:1337"],"infoHash":"bf287c98e56df3274b2cae8817d138d9d8033cba","infoHashBuffer":{"type":"Buffer","data":[191,40,124,152,229,109,243,39,75,44,174,136,23,209,56,217,216,3,60,186]},"name":"Cars 3 2017 Movies HD TS XviD Clean Audio V2 New  Sample ~ ☻rDX☻","announce":["udp://exodus.desync.com:6969","udp://open.demonii.com:1337","udp://tracker.coppersurfer.tk:6969","udp://tracker.leechers-paradise.org:6969","udp://zer0day.ch:1337"],"urlList":[]}}